<?xml version="1.0" encoding="utf-8"?>
<!-- Generator: Adobe Illustrator 24.0.0, SVG Export Plug-In . SVG Version: 6.00 Build 0)  -->
<svg version="1.1" xmlns="http://www.w3.org/2000/svg" xmlns:xlink="http://www.w3.org/1999/xlink" x="0px" y="0px"
	 viewBox="0 0 500 500" style="enable-background:new 0 0 500 500;" xml:space="preserve">
<style type="text/css">
	.st0{fill:#212121;}
</style>
<g id="BACKGROUND">
</g>
<g id="DESIGNED_BY_FREEPIK">
</g>
<g id="OBJECTS">
	<path class="st0" d="M485.7,265.1l-18.8-34.8l5.5-14.6c0.2-0.4,0.2-0.9,0-1.3l-8.6-23.1c-0.1-0.2-0.1-0.3-0.2-0.4l-22-29.6
		l-3.8-8.5c-0.1-0.2-0.2-0.3-0.3-0.4l-5.8-6.7c-0.3-0.3-0.7-0.5-1.1-0.6l-13.4-1.9c-0.1,0-0.2,0-0.3,0c-0.4,0-0.8,0.1-1.1,0.4
		l-7.7,6L407,149l-0.2,0.5l-10.6-2.5l-36.4-8.6l-26.9-8.6l-0.3-0.1l-39.5-2.9l-0.1,0c-0.2,0-0.5,0-0.7,0.1l-25.7,10.5l-27.4,3.8
		l-59.3-4.8l-31.7-2.9l-0.2,0c-0.3,0-0.6,0.1-0.8,0.2l-26.9,14.4c-0.1,0.1-0.2,0.1-0.3,0.2l-29.8,25.9c-0.1,0.1-0.2,0.2-0.3,0.3
		l-15.4,20.2c-0.1,0.1-0.2,0.3-0.3,0.5l-15.4,42.3c-0.1,0.2-0.1,0.5-0.1,0.8l1.9,25.7L55,299.8L35,325.4l-9.6,13.4
		c-0.3,0.4-0.4,0.8-0.3,1.3l2.9,19.2c0,0.3,0.2,0.6,0.3,0.8l0.3,0.4c0.3,0.4,0.6,0.9,0.9,1.3l11.3,15.6c0.1,0.1,0.1,0.2,0.2,0.2
		L59.3,395c0.1,0.1,0.2,0.2,0.4,0.3l10.6,5.8c0.3,0.1,0.6,0.2,0.9,0.2h13.4c0.4,0,0.9-0.2,1.2-0.4l7.7-6.7c0.4-0.3,0.6-0.8,0.6-1.4
		v-11.5c0-0.7-0.4-1.3-0.9-1.6l-8.6-4.8l-11.6-7.2v-7.8l10-9.1l34.1-30.6l-3.5,43.5c0,0.2,0,0.4,0,0.6l3.8,15.4
		c0.1,0.5,0.4,0.8,0.8,1.1l12.5,7.7c0.3,0.2,0.6,0.3,0.9,0.3l49.3,1.9c0.9-0.1,1.8-0.2,2.8-0.2l11.1-4.6c0.5-0.2,0.8-0.6,1-1
		l2.9-7.7c0.2-0.4,0.2-0.9,0-1.3l-3.8-9.6c-0.3-0.7-0.9-1.1-1.7-1.1l-7.6,0l-18.3-0.9l-4.8-7.2l3.6-14.6l0-0.1l3.7-25.3l7.4-5.8
		l13.6,2.7c0.1,0,0.2,0,0.4,0c0,0,27.8-1,27.8-1l16.9,0.9l3.4,11.9l-3.8,56.4c0,0.4,0.1,0.8,0.3,1.2l6.2,8.9c0.5,0.5,1,1,1.5,1.4
		l17,7.6c0.2,0.1,0.5,0.2,0.7,0.2H293c0.1,0,0.2,0,0.4,0l19.2-3.8c0.8-0.2,1.4-0.8,1.4-1.6l1-9.6c0-0.5-0.1-0.9-0.4-1.3l-7.7-9.6
		c-0.3-0.4-0.9-0.7-1.4-0.7h-9.4l-9.5-2.6l-3.2-7.3l6.5-22.3l18.5-45.8l10.8,26.6c0.1,0.2,0.2,0.4,0.3,0.5l22,23.9l15.3,24.9
		l9.6,14.4c0.3,0.5,0.9,0.8,1.5,0.8h58.6c0.6,0,1.1-0.3,1.5-0.8l6.7-9.6c0.4-0.6,0.4-1.4,0-2l-6.7-10.6c-0.3-0.5-0.8-0.8-1.3-0.8
		l-23-2.5c-0.3-0.3-0.7-0.4-1.2-0.4c-0.3,0-0.6,0.1-0.8,0.2l-1-0.1l-16.8-27.9l-18.1-43.8l-1.8-22.2l6.8-11l17.6,1.8l12.3,8.5
		c0.7,0.5,1.4,1,2.2,1.5l0.5,0.4c0.1,0.1,0.3,0.2,0.5,0.2l35.5,11.5c0.2,0,0.3,0.1,0.5,0.1l19.3,1c0.3,0,0.6-0.1,0.8-0.2l25-13.4
		c0.2-0.1,0.3-0.2,0.5-0.4c0.1-0.1,0.3-0.3,0.4-0.7C486,265.8,485.7,265.2,485.7,265.1z M295.4,378.1c0.2,0,0.3,0.1,0.5,0.1h8.7
		l6.7,8.4l-0.8,7.6l-16.3,3.3l-6.3-21.3L295.4,378.1z M185.4,368.6h6.5l3.1,7.8l-2.4,6.3l-10,4.2l-13-19.1L185.4,368.6z
		 M473.2,269.8l3.4-13.8l5,9.3L473.2,269.8z M440.2,276.7l-35.1-11.4l-0.6-0.4l2.2-14.2l45.1,26.5L440.2,276.7z M429.4,148.5l5.2,6
		l3.2,7.2l-22.2,20.4l-8.6-3.9l-2.6-13.9l4.8-11.1c0.1,0,0.2-0.1,0.2-0.2l8-6.3L429.4,148.5z M408.4,233.9l-23.2-75.8l15.7,7.3
		l2.7,14.5c0.1,0.6,0.5,1.1,1,1.3l10.6,4.8c0.2,0.1,0.5,0.2,0.7,0.2c0.5,0,0.9-0.2,1.2-0.5l22.5-20.7l20.8,28l7.9,21.1L408.4,233.9z
		 M401.5,161.7L359,141.9l36.3,8.6l10,2.3L401.5,161.7z M404.2,232.3l-70-41.3v-56.7l46.7,21.7L404.2,232.3z M405.3,237.1l-1.4,9.2
		l-33.2,6.2l-33.2-55.3L405.3,237.1z M408.9,237.5l58.8-19.6l-4.4,11.8c-0.2,0.5-0.1,1,0.1,1.5l10.8,20l-5.2,20.8l-9.8,5.3
		l-51.8-30.5L408.9,237.5z M322.1,321l-11.5-28.2l49.9-23.2l1.7,20.5c0,0.2,0.1,0.4,0.1,0.5l17,41.1L322.1,321z M330.5,133.2V192
		c0,0.3,0.1,0.6,0.3,0.9l36.9,61.5l-6.4,10.4l-116.1-35.6l23.3-88.7l24.7-10.1L330.5,133.2z M306.8,291c0,0.1-0.1,0.1-0.1,0.2
		l-20.2,49.9l0,0.1l-5.9,20.2l-37.9-37l-3.6-12.7l5.6-79.1l112.5,34.5l-49.5,23l-0.9,0.4L306.8,291z M261.6,397.7l-13.7-6.1
		l36.1-15.6l6.4,21.7H261.6z M242.6,329.5l37.3,36.4l3,6.7l-38.5,16.6l-5.3-7.6L242.6,329.5z M219.1,309.3l-0.1,0l-27.7,1l-13.7-2.7
		l0-0.2l-51.8,6l35.7-25.7L241,234l-5.4,76.2L219.1,309.3z M132.1,385.2l-9.6-5.9l42.9-11.4l12.9,19L132.1,385.2z M72.9,397.7v-25.7
		l9.8,6l7.7,4.3v9.7l-6.6,5.7H72.9z M72.5,355.4l-8.2-91.5l-1.8-24.7l0,0L96,219.9l61.7,65.9L118,314.5l0,0l-37.6,33.7L72.5,355.4z
		 M69.3,370.2v26.2l-7.7-4.2l-18-17L34.8,363L69.3,370.2z M58.1,301.6c0.2-0.2,0.3-0.5,0.4-0.8l3.5-22.2l7.3,81.5v6.4l-37.6-7.9
		l-0.2-0.2l-2.7-18.1l9.1-12.8L58.1,301.6z M93.5,217.3l-29.6,17l12.8-35.1L93.5,217.3z M264.6,141.3l-22.7,86.3l-80.8-47.3
		l-11.3-43l29.7,2.7l59.5,4.8c0.1,0,0.1,0,0.2,0l0.2,0L264.6,141.3z M99.2,218.1l59.2-34l11.7,44.4l-10.8,53.8L99.2,218.1z
		 M163,282.2l10.7-53.3c0.1-0.3,0-0.5,0-0.8l-11.3-42.8l77.2,45.3L163,282.2z M157.4,180.5l-60.8,34.9l-18.4-19.7l14.3-18.8
		l29.5-25.7l24.3-13L157.4,180.5z M120.6,319.9l38.4,38.4l4.3,6.4l-43.1,11.4l-3.1-12.4L120.6,319.9z M159.4,353.7L123,317.3
		l47.6-5.5l-3.6,2.8c-0.4,0.3-0.6,0.7-0.7,1.2l-3.8,25.8L159.4,353.7z M369.2,384.2h-0.4l-9-13.6l-15.4-25c-0.1-0.1-0.1-0.2-0.2-0.3
		l-18.4-20l55.4,10.4l16.9,28.1L369.2,384.2z M425.4,367.5l5.6,8.8l-4.8,6.9l-18.3-17.6L425.4,367.5z M375.5,384.2l26.8-18.9
		l19.7,18.9H375.5z M390,254.9c-0.2-0.2-0.5-0.3-0.8-0.3l-6.7-0.7l20.8-3.9l-2,12.6L390,254.9z"/>
</g>
</svg>
